<svg width="76" height="24" viewBox="0 0 76 24" fill="none" xmlns="http://www.w3.org/2000/svg">
<g clip-path="url(#clip0)">
<path d="M-39.2662 19.5944C29.6555 33.7152 109.998 39.5212 136.8 35.1034" stroke="#D6E3F3" stroke-width="1.5"/>
<path d="M-39.2662 5.50443C29.6555 19.6252 109.998 25.4313 136.8 21.0134" stroke="#D6E3F3" stroke-width="1.5"/>
<path d="M-39.2662 9.06296C29.6555 23.1837 109.998 28.9898 136.8 24.572" stroke="#D6E3F3" stroke-width="1.5"/>
<path d="M-39.2662 15.0359C29.6555 29.1567 109.998 34.9627 136.8 30.5449" stroke="#D6E3F3" stroke-width="1.5"/>
<path d="M-39.2662 15.0359C29.6555 29.1567 109.998 34.9627 136.8 30.5449" stroke="#D6E3F3" stroke-width="1.5"/>
<path d="M-39.2662 1.94589C29.6555 16.0667 109.998 21.8727 136.8 17.4549" stroke="#D6E3F3" stroke-width="1.5"/>
<path d="M-35.2662 -9C33.6555 5.12078 113.998 10.9268 140.8 6.50901" stroke="#D6E3F3" stroke-width="1.5"/>
<path d="M-39.2662 -5.02707C29.6555 9.09371 109.998 14.8998 136.8 10.4819" stroke="#D6E3F3" stroke-width="1.5"/>
<path d="M-36.2662 -1.02707C32.6555 13.0937 112.998 18.8998 139.8 14.4819" stroke="#D6E3F3" stroke-width="1.5"/>
<path d="M-39.2662 11.8703C29.6555 27.3728 109.998 33.747 136.8 28.8969" stroke="#D6E3F3" stroke-width="1.5"/>
</g>
<path d="M24.268 17.236L24.592 17.668C24.808 17.824 25.102 17.956 25.474 18.064C25.858 18.16 26.278 18.208 26.734 18.208C27.166 18.208 27.562 18.166 27.922 18.082C28.294 17.986 28.618 17.848 28.894 17.668C29.17 17.488 29.386 17.26 29.542 16.984C29.698 16.708 29.776 16.378 29.776 15.994C29.776 15.502 29.608 15.094 29.272 14.77C28.948 14.446 28.54 14.158 28.048 13.906C27.556 13.654 27.022 13.408 26.446 13.168C25.87 12.928 25.336 12.646 24.844 12.322C24.352 11.998 23.938 11.608 23.602 11.152C23.278 10.696 23.116 10.12 23.116 9.424C23.116 8.404 23.5 7.612 24.268 7.048C25.048 6.472 26.098 6.184 27.418 6.184C28.246 6.184 28.96 6.238 29.56 6.346C30.16 6.454 30.67 6.598 31.09 6.778V9.874H29.938V7.93L29.65 7.48C29.422 7.384 29.092 7.312 28.66 7.264C28.228 7.216 27.802 7.192 27.382 7.192C26.662 7.192 26.098 7.36 25.69 7.696C25.282 8.02 25.078 8.482 25.078 9.082C25.078 9.574 25.24 9.988 25.564 10.324C25.9 10.648 26.314 10.942 26.806 11.206C27.298 11.47 27.832 11.728 28.408 11.98C28.984 12.22 29.518 12.502 30.01 12.826C30.502 13.138 30.91 13.516 31.234 13.96C31.57 14.404 31.738 14.956 31.738 15.616C31.738 16.78 31.288 17.674 30.388 18.298C29.488 18.91 28.258 19.216 26.698 19.216C25.846 19.216 25.108 19.126 24.484 18.946C23.86 18.766 23.404 18.574 23.116 18.37V15.094H24.268V17.236ZM33.7487 12.7C33.7487 11.764 33.8927 10.9 34.1807 10.108C34.4687 9.304 34.8827 8.614 35.4227 8.038C35.9747 7.45 36.6467 6.994 37.4387 6.67C38.2427 6.346 39.1547 6.184 40.1747 6.184C41.1947 6.184 42.1067 6.346 42.9107 6.67C43.7147 6.994 44.3927 7.45 44.9447 8.038C45.4967 8.614 45.9167 9.304 46.2047 10.108C46.4927 10.9 46.6367 11.764 46.6367 12.7C46.6367 13.636 46.4927 14.506 46.2047 15.31C45.9167 16.102 45.4967 16.792 44.9447 17.38C44.3927 17.956 43.7147 18.406 42.9107 18.73C42.1067 19.054 41.1947 19.216 40.1747 19.216C39.1547 19.216 38.2427 19.054 37.4387 18.73C36.6467 18.406 35.9747 17.956 35.4227 17.38C34.8827 16.792 34.4687 16.102 34.1807 15.31C33.8927 14.506 33.7487 13.636 33.7487 12.7ZM35.9987 12.7C35.9987 13.468 36.0827 14.188 36.2507 14.86C36.4307 15.532 36.7007 16.114 37.0607 16.606C37.4207 17.098 37.8707 17.488 38.4107 17.776C38.9627 18.064 39.6107 18.208 40.3547 18.208C41.0387 18.208 41.6327 18.064 42.1367 17.776C42.6407 17.488 43.0547 17.098 43.3787 16.606C43.7147 16.114 43.9667 15.532 44.1347 14.86C44.3027 14.188 44.3867 13.468 44.3867 12.7C44.3867 11.932 44.2967 11.212 44.1167 10.54C43.9487 9.868 43.6847 9.286 43.3247 8.794C42.9647 8.302 42.5087 7.912 41.9567 7.624C41.4167 7.336 40.7687 7.192 40.0127 7.192C39.2927 7.192 38.6747 7.336 38.1587 7.624C37.6547 7.912 37.2407 8.302 36.9167 8.794C36.5927 9.286 36.3587 9.868 36.2147 10.54C36.0707 11.212 35.9987 11.932 35.9987 12.7ZM48.6901 12.7C48.6901 11.764 48.8341 10.9 49.1221 10.108C49.4101 9.304 49.8241 8.614 50.3641 8.038C50.9161 7.45 51.5881 6.994 52.3801 6.67C53.1841 6.346 54.0961 6.184 55.1161 6.184C56.1361 6.184 57.0481 6.346 57.8521 6.67C58.6561 6.994 59.3341 7.45 59.8861 8.038C60.4381 8.614 60.8581 9.304 61.1461 10.108C61.4341 10.9 61.5781 11.764 61.5781 12.7C61.5781 13.636 61.4341 14.506 61.1461 15.31C60.8581 16.102 60.4381 16.792 59.8861 17.38C59.3341 17.956 58.6561 18.406 57.8521 18.73C57.0481 19.054 56.1361 19.216 55.1161 19.216C54.0961 19.216 53.1841 19.054 52.3801 18.73C51.5881 18.406 50.9161 17.956 50.3641 17.38C49.8241 16.792 49.4101 16.102 49.1221 15.31C48.8341 14.506 48.6901 13.636 48.6901 12.7ZM50.9401 12.7C50.9401 13.468 51.0241 14.188 51.1921 14.86C51.3721 15.532 51.6421 16.114 52.0021 16.606C52.3621 17.098 52.8121 17.488 53.3521 17.776C53.9041 18.064 54.5521 18.208 55.2961 18.208C55.9801 18.208 56.5741 18.064 57.0781 17.776C57.5821 17.488 57.9961 17.098 58.3201 16.606C58.6561 16.114 58.9081 15.532 59.0761 14.86C59.2441 14.188 59.3281 13.468 59.3281 12.7C59.3281 11.932 59.2381 11.212 59.0581 10.54C58.8901 9.868 58.6261 9.286 58.2661 8.794C57.9061 8.302 57.4501 7.912 56.8981 7.624C56.3581 7.336 55.7101 7.192 54.9541 7.192C54.2341 7.192 53.6161 7.336 53.1001 7.624C52.5961 7.912 52.1821 8.302 51.8581 8.794C51.5341 9.286 51.3001 9.868 51.1561 10.54C51.0121 11.212 50.9401 11.932 50.9401 12.7ZM66.8355 17.992H68.3835V19H63.1815V17.992H64.8195V7.408H63.1815V6.4H64.9995C65.5395 6.4 66.1275 6.376 66.7635 6.328C67.3995 6.28 68.0235 6.256 68.6355 6.256C69.2955 6.256 69.9135 6.328 70.4895 6.472C71.0775 6.604 71.5815 6.814 72.0015 7.102C72.4215 7.39 72.7515 7.762 72.9915 8.218C73.2435 8.662 73.3695 9.196 73.3695 9.82C73.3695 10.684 73.0995 11.422 72.5595 12.034C72.0315 12.634 71.3355 13.06 70.4715 13.312L74.0535 17.992H75.1695V19H72.2535L68.6715 13.564H66.8355V17.992ZM68.2575 12.628C69.1815 12.628 69.9015 12.376 70.4175 11.872C70.9455 11.368 71.2095 10.684 71.2095 9.82C71.2095 8.932 70.9335 8.284 70.3815 7.876C69.8295 7.468 69.0975 7.264 68.1855 7.264C67.8735 7.264 67.6095 7.276 67.3935 7.3C67.1895 7.324 67.0035 7.348 66.8355 7.372V12.628H68.2575Z" fill="#D6E3F3"/>
<defs>
<clipPath id="clip0">
<rect y="3" width="19" height="19" rx="9.5" fill="white"/>
</clipPath>
</defs>
</svg>
